<svg width="70" height="70" viewBox="0 0 70 70" fill="none" xmlns="http://www.w3.org/2000/svg">
<circle cx="35" cy="35" r="35" fill="#D3F4FF"/>
<path d="M57.4453 20.9297C57.4453 21.1901 57.3802 21.5156 57.25 21.9062C57.1849 22.2969 57.1523 22.6875 57.1523 23.0781C57.1523 23.4036 57.1849 23.6966 57.25 23.957C57.3802 24.2174 57.6406 24.3477 58.0312 24.3477C56.9245 26.0404 55.7852 27.7982 54.6133 29.6211C53.5065 31.3789 52.4648 33.2018 51.4883 35.0898C50.5117 36.9128 49.6979 38.7357 49.0469 40.5586C48.3958 42.3815 48.0378 44.1719 47.9727 45.9297C47.9727 46.9714 47.4518 47.5573 46.4102 47.6875C45.4336 47.8177 44.2617 47.7526 42.8945 47.4922C41.5924 47.1667 40.2904 46.776 38.9883 46.3203C37.7513 45.7995 36.8398 45.4089 36.2539 45.1484C35.9935 44.5625 35.7982 43.8789 35.668 43.0977C35.5378 42.3164 35.4401 41.5352 35.375 40.7539C35.3099 39.9076 35.2448 39.0938 35.1797 38.3125C35.1797 37.4661 35.1797 36.75 35.1797 36.1641C35.7005 35.4479 36.0586 34.5039 36.2539 33.332C36.4492 32.1602 36.7422 31.0859 37.1328 30.1094C37.3932 29.4583 37.5234 29.0677 37.5234 28.9375C37.5234 28.7422 37.5234 28.6445 37.5234 28.6445C37.5234 28.5794 37.556 28.4818 37.6211 28.3516C37.6862 28.1562 37.8815 27.7331 38.207 27.082C38.3372 26.7565 38.3372 26.4961 38.207 26.3008C38.0768 26.0404 38.0768 25.8125 38.207 25.6172C38.3372 25.487 38.5 25.3568 38.6953 25.2266C38.9557 25.0964 39.1185 24.9661 39.1836 24.8359C39.444 24.4453 39.5417 24.1523 39.4766 23.957C39.4115 23.7617 39.5417 23.4688 39.8672 23.0781C40.1276 22.7526 40.4857 22.3294 40.9414 21.8086C41.3971 21.2227 41.625 20.6693 41.625 20.1484C42.5365 19.5625 43.3828 18.944 44.1641 18.293C45.0104 17.6419 46.1497 17.1536 47.582 16.8281C47.9076 17.0234 48.4935 17.349 49.3398 17.8047C50.1862 18.2604 51.1302 18.7161 52.1719 19.1719C53.2135 19.5625 54.2227 19.9531 55.1992 20.3438C56.1758 20.6693 56.9245 20.8646 57.4453 20.9297ZM35.4727 24.1523C34.4961 25.9753 33.5195 27.8958 32.543 29.9141C31.5664 31.8672 30.6549 33.8529 29.8086 35.8711C29.0273 37.8242 28.3763 39.8099 27.8555 41.8281C27.3346 43.7812 27.1068 45.6693 27.1719 47.4922C27.1719 48.599 26.6836 49.25 25.707 49.4453C24.7956 49.6406 23.6888 49.6406 22.3867 49.4453C21.1497 49.1849 19.9128 48.8268 18.6758 48.3711C17.4388 47.9154 16.5273 47.5573 15.9414 47.2969C15.681 46.7109 15.4531 46.0273 15.2578 45.2461C15.1276 44.4648 14.9974 43.651 14.8672 42.8047C14.8021 41.8932 14.737 41.0143 14.6719 40.168C14.6068 39.3216 14.5417 38.5729 14.4766 37.9219C14.9323 37.1406 15.2253 36.1315 15.3555 34.8945C15.4857 33.6576 15.7135 32.5182 16.0391 31.4766C16.2344 30.7604 16.332 30.3372 16.332 30.207C16.332 30.0117 16.332 29.9141 16.332 29.9141C16.332 29.849 16.332 29.7188 16.332 29.5234C16.3971 29.3281 16.5599 28.8724 16.8203 28.1562C16.9505 27.8307 16.9505 27.5703 16.8203 27.375C16.6901 27.1146 16.6901 26.8542 16.8203 26.5938C16.9505 26.4635 17.1133 26.3333 17.3086 26.2031C17.5039 26.0078 17.6341 25.8451 17.6992 25.7148C17.8945 25.2591 17.9596 24.9336 17.8945 24.7383C17.8294 24.543 17.9596 24.25 18.2852 23.8594C18.4805 23.5339 18.7734 23.0456 19.1641 22.3945C19.6198 21.7435 19.8151 21.1576 19.75 20.6367C20.6615 19.9857 21.4427 19.3021 22.0938 18.5859C22.8099 17.8047 23.819 17.2188 25.1211 16.8281C25.4466 17.0234 26.0326 17.349 26.8789 17.8047C27.7253 18.1953 28.6367 18.5859 29.6133 18.9766C30.6549 19.3672 31.6315 19.7253 32.543 20.0508C33.4544 20.3763 34.1706 20.5716 34.6914 20.6367C34.6914 20.8971 34.6589 21.2227 34.5938 21.6133C34.5938 22.0039 34.5938 22.3945 34.5938 22.7852C34.5938 23.1758 34.6589 23.5013 34.7891 23.7617C34.9193 24.0221 35.1471 24.1523 35.4727 24.1523Z" fill="#515151"/>
</svg>
